<svg xmlns="http://www.w3.org/2000/svg" width="92.546" height="65.576" viewBox="0 0 92.546 65.576">
  <path id="chair_FILL0_wght400_GRAD0_opsz48" d="M18.09,71.576a3.269,3.269,0,0,1-2.208-.82,2.466,2.466,0,0,1-.946-1.913V65.019H13.568a12.1,12.1,0,0,1-8.2-2.915A9.059,9.059,0,0,1,2,55V32.777a8.234,8.234,0,0,1,3.26-7.059A12.547,12.547,0,0,1,12.937,23.3V15.472a8.617,8.617,0,0,1,3.05-6.831A11.616,11.616,0,0,1,23.875,6h48.9a11.415,11.415,0,0,1,7.835,2.641,8.683,8.683,0,0,1,3,6.831V23.3a12.547,12.547,0,0,1,7.677,2.414,8.234,8.234,0,0,1,3.26,7.059V55a9.059,9.059,0,0,1-3.365,7.1,12.1,12.1,0,0,1-8.2,2.915H81.611v3.825a2.466,2.466,0,0,1-.946,1.913,3.385,3.385,0,0,1-4.417,0,2.466,2.466,0,0,1-.946-1.913V65.019H21.245v3.825a2.466,2.466,0,0,1-.946,1.913A3.269,3.269,0,0,1,18.09,71.576ZM13.568,59.554h69.41a5.448,5.448,0,0,0,3.681-1.366A4.111,4.111,0,0,0,88.236,55V32.777a3.663,3.663,0,0,0-1.262-2.915,5.728,5.728,0,0,0-6.731,0,3.663,3.663,0,0,0-1.262,2.915v16.03H17.565V32.777A3.663,3.663,0,0,0,16.3,29.862a4.961,4.961,0,0,0-3.365-1.093,4.961,4.961,0,0,0-3.365,1.093A3.663,3.663,0,0,0,8.31,32.777V55a4.111,4.111,0,0,0,1.577,3.188A5.448,5.448,0,0,0,13.568,59.554ZM23.875,43.342h48.8V32.777a7.342,7.342,0,0,1,1.472-4.691,13.272,13.272,0,0,1,3.155-2.96V15.472a3.663,3.663,0,0,0-1.262-2.915,4.961,4.961,0,0,0-3.365-1.093h-48.8a4.961,4.961,0,0,0-3.365,1.093,3.663,3.663,0,0,0-1.262,2.915v9.654a13.272,13.272,0,0,1,3.155,2.96,7.342,7.342,0,0,1,1.472,4.691Zm24.4,0Zm0,16.212Zm0-10.747Z" transform="translate(-2 -6)" fill="#9d1d1d"/>
</svg>
