<svg xmlns="http://www.w3.org/2000/svg" width="76.334" height="64.595" viewBox="0 0 76.334 64.595">
  <path id="handshake_FILL0_wght400_GRAD0_opsz48" d="M92.8,171.259a3.009,3.009,0,0,0,1-.2,2.608,2.608,0,0,0,.911-.526l29.232-27.326a6.961,6.961,0,0,0,2.255-5.093,7.194,7.194,0,0,0-.564-2.749,6.833,6.833,0,0,0-1.691-2.425l-15.614-14.552a7.435,7.435,0,0,0-2.6-1.576,8.736,8.736,0,0,0-2.949-.525,8.373,8.373,0,0,0-2.906.525,7.521,7.521,0,0,0-2.559,1.576l-1.561,1.455,7.026,6.629a12.785,12.785,0,0,1,2,2.627,6.411,6.411,0,0,1,.867,3.274,7.157,7.157,0,0,1-2.559,5.417,8.421,8.421,0,0,1-5.855,2.345,9.273,9.273,0,0,1-3.6-.606,9.042,9.042,0,0,1-2.646-1.738l-6.332-5.9-15.7,14.633a2.338,2.338,0,0,0-.607.849,2.535,2.535,0,0,0-.173.93,2.274,2.274,0,0,0,.737,1.738,2.628,2.628,0,0,0,1.865.687,2.173,2.173,0,0,0,1-.243,3.575,3.575,0,0,0,.824-.566l11.97-11.157,3.643,3.4L76.321,153.23a2.255,2.255,0,0,0-.607.889,2.864,2.864,0,0,0-.173.97,2.254,2.254,0,0,0,.781,1.7,2.588,2.588,0,0,0,1.822.728,2.532,2.532,0,0,0,1-.2,2.794,2.794,0,0,0,.824-.526l11.97-11.157,3.643,3.4L83.694,160.1a2.38,2.38,0,0,0-.564.849,2.645,2.645,0,0,0-.217,1.011,2.254,2.254,0,0,0,.781,1.7,2.588,2.588,0,0,0,1.822.728,2.712,2.712,0,0,0,.954-.162,2.655,2.655,0,0,0,.867-.566L99.308,152.5l3.643,3.4L90.98,167.055a2.255,2.255,0,0,0-.607.889,2.661,2.661,0,0,0-.173.889,2.312,2.312,0,0,0,.694,1.779A2.689,2.689,0,0,0,92.8,171.259Zm0,4.851a7.544,7.544,0,0,1-5.118-1.981A7.875,7.875,0,0,1,85,169.238a8.8,8.8,0,0,1-4.944-2.264,7.779,7.779,0,0,1-2.429-4.608,8.465,8.465,0,0,1-4.9-2.3,8.018,8.018,0,0,1-2.385-4.568,8.968,8.968,0,0,1-5.291-2.425,6.521,6.521,0,0,1-2.082-4.851,7.194,7.194,0,0,1,.564-2.749,6.832,6.832,0,0,1,1.691-2.425l19.43-18.109,9.542,8.893a5.442,5.442,0,0,0,1.518,1.011,3.959,3.959,0,0,0,1.6.364,3.081,3.081,0,0,0,2.125-.93,2.705,2.705,0,0,0,1-1.981,2.482,2.482,0,0,0-.3-1.091,4.579,4.579,0,0,0-1-1.253l-12.4-11.561a7.434,7.434,0,0,0-2.6-1.576,8.736,8.736,0,0,0-2.949-.525,8.373,8.373,0,0,0-2.906.525,7.521,7.521,0,0,0-2.559,1.576L62.529,130.675a6.43,6.43,0,0,0-1.691,2.385,9.273,9.273,0,0,0-.564,2.789,6.184,6.184,0,0,0,.651,3.113A12.879,12.879,0,0,0,62.7,141.67l-3.73,3.476a14.052,14.052,0,0,1-2.819-4.285,12.717,12.717,0,0,1-1.084-5.093,11.232,11.232,0,0,1,1-4.649,12.071,12.071,0,0,1,2.819-3.921l13.1-12.208a12.207,12.207,0,0,1,4.337-2.627,14.887,14.887,0,0,1,4.944-.849,14.514,14.514,0,0,1,4.9.849,12.288,12.288,0,0,1,4.294,2.627l1.561,1.455,1.561-1.455a12.207,12.207,0,0,1,4.337-2.627,14.887,14.887,0,0,1,4.944-.849,14.514,14.514,0,0,1,4.9.849,12.288,12.288,0,0,1,4.294,2.627l15.527,14.471a11.806,11.806,0,0,1,3.817,8.65,11.474,11.474,0,0,1-.954,4.568,11.822,11.822,0,0,1-2.863,4L98.353,173.927A8.11,8.11,0,0,1,92.8,176.11Zm-8.5-44.141Z" transform="translate(-55.069 -111.514)" fill="#9d1d1d"/>
</svg>
