<svg xmlns="http://www.w3.org/2000/svg" width="76.98" height="80" viewBox="0 0 76.98 80">
  <path id="health_and_safety_FILL0_wght400_GRAD0_opsz48" d="M41.679,56.05H51.3v-10H63.329v-8H51.3v-10H41.679v10H29.651v8H41.679Zm4.811,27.9A48.073,48.073,0,0,1,18.825,67.7Q8,54.95,8,39.75V15.95l38.49-12,38.49,12v23.8q0,15.2-10.825,27.95A48.073,48.073,0,0,1,46.49,83.95Zm0-38.8Zm0,32.6A43.383,43.383,0,0,0,69.042,63.4a36.177,36.177,0,0,0,8.72-23.65V20.15L46.49,10.35l-31.273,9.8v19.6a36.177,36.177,0,0,0,8.72,23.65A43.383,43.383,0,0,0,46.49,77.75Z" transform="translate(-8 -3.95)" fill="#9d1d1d"/>
</svg>
