<svg xmlns="http://www.w3.org/2000/svg" width="62.843" height="45.345" viewBox="0 0 62.843 45.345">
  <path id="mail_FILL0_wght400_GRAD0_opsz48" d="M7.113,50.144a4.772,4.772,0,0,1-3.3-1.275A3.9,3.9,0,0,1,2.4,45.893V9.051A3.9,3.9,0,0,1,3.814,6.075,4.772,4.772,0,0,1,7.113,4.8H60.53a4.772,4.772,0,0,1,3.3,1.275,3.9,3.9,0,0,1,1.414,2.976V45.893a3.9,3.9,0,0,1-1.414,2.976,4.771,4.771,0,0,1-3.3,1.275Zm26.708-21.4L7.113,12.948V45.893H60.53V12.948Zm0-4.251L60.216,9.051H7.506ZM7.113,12.948V45.893h0Z" transform="translate(-2.4 -4.8)" fill="#faf2f2"/>
</svg>
