<svg xmlns="http://www.w3.org/2000/svg" width="30" height="30" viewBox="0 0 30 30">
  <path id="messenger" d="M0,14.551C0,6.19,6.549,0,15,0S30,6.19,30,14.551,23.451,29.1,15,29.1a16.408,16.408,0,0,1-4.342-.576,1.2,1.2,0,0,0-.8.056L6.879,29.9A1.2,1.2,0,0,1,5.2,28.837l-.082-2.668a1.2,1.2,0,0,0-.4-.855A14.238,14.238,0,0,1,0,14.551Zm10.4-2.736-4.406,6.99a.713.713,0,0,0,1.033.949l4.734-3.593a.9.9,0,0,1,1.084,0l3.5,2.629a2.25,2.25,0,0,0,3.253-.6l4.406-6.99a.713.713,0,0,0-1.033-.949L18.24,13.84a.9.9,0,0,1-1.084,0l-3.5-2.631a2.25,2.25,0,0,0-3.253.6Z" fill="#a89898"/>
</svg>
