<svg xmlns="http://www.w3.org/2000/svg" width="49.27" height="71.649" viewBox="0 0 49.27 71.649">
  <path id="pin_drop_FILL0_wght400_GRAD0_opsz48" d="M35.135,56.125Q44.624,48.6,49.46,41.661T54.3,28.719a18.8,18.8,0,0,0-1.962-8.956,19.293,19.293,0,0,0-4.836-6,18.391,18.391,0,0,0-6.25-3.359,21.153,21.153,0,0,0-6.113-1.03,21.153,21.153,0,0,0-6.113,1.03,18.39,18.39,0,0,0-6.25,3.359,19.293,19.293,0,0,0-4.836,6,18.8,18.8,0,0,0-1.962,8.956q0,6,4.836,12.942T35.135,56.125Zm0,6.807q-12.5-9.225-18.567-17.644T10.5,28.719A24.015,24.015,0,0,1,26.467,5.567a24.752,24.752,0,0,1,17.336,0A23.919,23.919,0,0,1,59.77,28.719q0,8.15-6.068,16.569T35.135,62.932Zm0-28.481a6.212,6.212,0,0,0,4.516-1.836,6.189,6.189,0,0,0,0-8.867,6.473,6.473,0,0,0-9.033,0,6.189,6.189,0,0,0,0,8.867A6.212,6.212,0,0,0,35.135,34.451ZM10.5,75.649V70.276H59.77v5.374Zm24.635-46.93Z" transform="translate(-10.5 -4)" fill="#faf2f2"/>
</svg>
