<svg xmlns="http://www.w3.org/2000/svg" width="36.5" height="70.536" viewBox="0 0 36.5 70.536">
  <path id="smartphone_FILL0_wght400_GRAD0_opsz48" d="M13.911,72.536a3.456,3.456,0,0,1-2.738-1.443A5.177,5.177,0,0,1,10,67.727V6.809a5.177,5.177,0,0,1,1.173-3.366A3.456,3.456,0,0,1,13.911,2H42.589a3.456,3.456,0,0,1,2.737,1.443A5.177,5.177,0,0,1,46.5,6.809V67.727a5.177,5.177,0,0,1-1.173,3.366,3.456,3.456,0,0,1-2.737,1.443Zm0-12.023H42.589V14.023H13.911Zm0,4.809v2.4H42.589v-2.4Zm0-56.108H42.589v-2.4H13.911Zm0-2.4h0v0Zm0,60.918h0v0Z" transform="translate(-10 -2)" fill="#faf2f2"/>
</svg>
