<svg xmlns="http://www.w3.org/2000/svg" width="69.046" height="68.855" viewBox="0 0 69.046 68.855">
  <path id="timer_FILL0_wght400_GRAD0_opsz48" d="M29.015,6.924V2H52.03V6.924Zm8.631,36.684H43.4V24.733H37.646Zm2.877,27.247a38.023,38.023,0,0,1-13.378-2.339,36.065,36.065,0,0,1-10.98-6.36,30.426,30.426,0,0,1-7.432-9.4,25.345,25.345,0,0,1,0-22.9,30.426,30.426,0,0,1,7.432-9.4,36.065,36.065,0,0,1,10.98-6.36,38.023,38.023,0,0,1,13.378-2.339,38.711,38.711,0,0,1,12.083,1.847,34.812,34.812,0,0,1,10.069,5.129l4.891-4.185L71.593,18,66.7,22.189a30.117,30.117,0,0,1,5.9,7.961,23.8,23.8,0,0,1,2.445,11.161,24.913,24.913,0,0,1-2.733,11.449,30.426,30.426,0,0,1-7.432,9.4,36.065,36.065,0,0,1-10.98,6.36A38.023,38.023,0,0,1,40.523,70.855Zm0-4.924A30.275,30.275,0,0,0,60.9,58.75q8.391-7.181,8.391-17.439T60.9,23.871A30.275,30.275,0,0,0,40.523,16.69a30.275,30.275,0,0,0-20.378,7.181q-8.391,7.181-8.391,17.439T20.145,58.75A30.275,30.275,0,0,0,40.523,65.931Zm0-24.538Z" transform="translate(-6 -2)" fill="#9d1d1d"/>
</svg>
