<svg xmlns="http://www.w3.org/2000/svg" width="56.473" height="64.448" viewBox="0 0 56.473 64.448">
  <path id="water_drop_FILL0_wght400_GRAD0_opsz48" d="M36.237,68.448a29.809,29.809,0,0,1-19.721-7.13Q8,54.189,8,42.024,8,33.968,15.015,24.5T36.237,4Q50.443,15.037,57.458,24.5t7.015,17.522q0,12.165-8.515,19.294A29.809,29.809,0,0,1,36.237,68.448Zm0-4.834a23.137,23.137,0,0,0,16.324-6.123,20.166,20.166,0,0,0,6.618-15.467q0-6.364-5.868-14.46T36.237,10.445Q25.03,19.467,19.162,27.564t-5.868,14.46a20.166,20.166,0,0,0,6.618,15.467A23.137,23.137,0,0,0,36.237,63.614Zm0-18.609Zm-.088,13.131a4.3,4.3,0,0,0,2.162-.443,1.446,1.446,0,0,0,.75-1.329,1.538,1.538,0,0,0-.75-1.37,4.205,4.205,0,0,0-2.25-.483,15.453,15.453,0,0,1-7.544-2.135q-3.838-2.135-4.9-7.532a1.971,1.971,0,0,0-.794-1.168,2.229,2.229,0,0,0-1.324-.443,1.785,1.785,0,0,0-1.5.685,1.6,1.6,0,0,0-.353,1.41q1.324,6.767,6.265,9.788A19.364,19.364,0,0,0,36.148,58.136Z" transform="translate(-8 -4)" fill="#9d1d1d"/>
</svg>
