<svg xmlns="http://www.w3.org/2000/svg" width="30" height="30" viewBox="0 0 30 30">
  <path id="whatsapp" d="M25.617,4.361A14.907,14.907,0,0,0,2.111,22.3L0,30l7.918-2.066a15,15,0,0,0,7.138,1.809h.008A14.93,14.93,0,0,0,30,14.874,14.775,14.775,0,0,0,25.615,4.361ZM15.057,27.227A12.423,12.423,0,0,1,8.736,25.5l-.452-.27-4.7,1.226L4.841,21.9l-.294-.471a12.259,12.259,0,0,1-1.9-6.572A12.424,12.424,0,0,1,23.841,6.129a12.266,12.266,0,0,1,3.631,8.737,12.407,12.407,0,0,1-12.416,12.36Zm6.809-9.251c-.371-.186-2.2-1.084-2.548-1.211s-.593-.186-.838.186S17.513,18.161,17.3,18.4s-.437.278-.81.094a10.2,10.2,0,0,1-3-1.847,11.343,11.343,0,0,1-2.077-2.572c-.215-.371-.021-.57.166-.756.164-.165.371-.435.558-.649a2.369,2.369,0,0,0,.373-.619.689.689,0,0,0-.028-.651c-.094-.186-.838-2.017-1.153-2.756s-.608-.628-.838-.637C10.274,8,10.024,8,9.773,8a1.376,1.376,0,0,0-1,.463,4.155,4.155,0,0,0-1.3,3.1A7.18,7.18,0,0,0,9,15.4a16.56,16.56,0,0,0,6.372,5.61A20.819,20.819,0,0,0,17.5,21.8a5.148,5.148,0,0,0,2.347.15,3.865,3.865,0,0,0,2.52-1.768,3.1,3.1,0,0,0,.215-1.768c-.092-.157-.343-.249-.716-.435Z" transform="translate(0 0)" fill="#a89898"/>
</svg>
